<?xml version="1.0" encoding="utf-8"?>
<!-- Generator: Adobe Illustrator 15.0.0, SVG Export Plug-In . SVG Version: 6.00 Build 0)  -->
<!DOCTYPE svg PUBLIC "-//W3C//DTD SVG 1.1//EN" "http://www.w3.org/Graphics/SVG/1.1/DTD/svg11.dtd">
<svg version="1.1" id="Layer_1" xmlns="http://www.w3.org/2000/svg" xmlns:xlink="http://www.w3.org/1999/xlink" x="0px" y="0px"
	 width="100px" height="50px" viewBox="0 0 100 50" enable-background="new 0 0 100 50" xml:space="preserve">
<g>
	<path d="M3.973,14.594c-0.479-0.688-0.84-1.422-1.084-2.203S2.522,10.789,2.522,9.93c0-2.25,0.686-4.219,2.058-5.906
		s2.978-2.531,4.816-2.531c0.925,0,2.156,0.398,3.694,1.195v7.336h-1.134c-0.083-2.04-0.5-3.706-1.249-4.999
		C9.958,3.732,9.042,3.086,7.96,3.086c-0.885,0-1.616,0.409-2.194,1.227C5.189,5.13,4.9,6.163,4.9,7.408
		c0,1.2,0.289,2.321,0.865,3.364c0.566,1.044,1.924,2.655,4.073,4.833c1.63,1.646,2.73,2.977,3.3,3.993
		c0.56,1.032,0.839,2.299,0.839,3.8c0,2.455-0.75,4.641-2.249,6.557c-1.499,1.915-3.198,2.873-5.096,2.873
		c-1.359,0-2.884-0.484-4.575-1.453v-8.461H3.16c0,2.375,0.457,4.359,1.37,5.953s1.999,2.391,3.254,2.391
		c1.152,0,2.063-0.508,2.733-1.523c0.669-1.016,1.004-2.305,1.004-3.867c0-1.359-0.275-2.555-0.826-3.586
		c-0.551-1.016-1.804-2.5-3.759-4.453C5.865,16.766,4.877,15.688,3.973,14.594z"/>
	<path d="M27.218,1.492c1.74,0,3.279,0.516,4.616,1.547c1.336,1.031,2.507,2.641,3.512,4.828s1.508,4.813,1.508,7.875
		c0,3.328-0.625,6.371-1.873,9.129s-2.704,4.773-4.367,6.047c-1.663,1.273-3.406,1.91-5.229,1.91c-2.611,0-4.829-1.355-6.652-4.066
		c-1.824-2.711-2.735-6.074-2.735-10.09c0-4.641,1.14-8.664,3.419-12.07S24.296,1.492,27.218,1.492z M25.275,3.672
		c-1.917,0-3.505,1.012-4.764,3.035s-1.888,4.699-1.888,8.027c0,4.891,0.945,8.781,2.836,11.672c1.891,2.891,3.96,4.336,6.209,4.336
		c1.792,0,3.333-1.016,4.624-3.047s1.935-4.641,1.935-7.828c0-2.984-0.43-5.785-1.29-8.402c-0.86-2.617-2.031-4.57-3.513-5.859
		S26.56,3.672,25.275,3.672z"/>
	<path d="M38.937,2.172h9.838c1.709,0,2.963,0.496,3.761,1.488s1.197,2.285,1.197,3.879c0,2.547-0.785,4.957-2.354,7.23
		c-1.57,2.273-3.184,3.41-4.842,3.41c-0.363,0-0.741-0.074-1.134-0.223c-0.394-0.148-0.803-0.363-1.228-0.645V27.32
		c0,2.394,0.788,3.629,2.362,3.703v1.125h-7.6v-1.125c0.933-0.016,1.559-0.279,1.88-0.792c0.321-0.512,0.482-1.482,0.482-2.911V7
		c0-1.516-0.176-2.504-0.528-2.965c-0.353-0.461-0.964-0.707-1.834-0.738V2.172z M44.174,4.799v9.369
		c0.663,0.751,1.292,1.315,1.889,1.69c0.595,0.376,1.152,0.563,1.67,0.563c0.974,0,1.704-0.493,2.191-1.479
		c0.487-0.986,0.73-2.465,0.73-4.438c0-2.035-0.313-3.745-0.94-5.13s-1.536-2.078-2.728-2.078
		C46.023,3.297,45.085,3.798,44.174,4.799z"/>
	<path d="M54.214,2.172h7.6v1.125c-0.933,0.031-1.56,0.305-1.881,0.82S59.451,5.594,59.451,7v8.039h9.48V7
		c0-1.516-0.179-2.504-0.536-2.965s-0.967-0.707-1.826-0.738V2.172h7.6v1.125c-0.933,0.031-1.56,0.305-1.881,0.82
		S71.807,5.594,71.807,7v20.32c0,1.521,0.179,2.516,0.536,2.981s0.966,0.706,1.826,0.722v1.125h-7.6v-1.125
		c0.911-0.016,1.533-0.283,1.865-0.804c0.331-0.52,0.497-1.486,0.497-2.899V16.492h-9.48V27.32c0,2.41,0.787,3.644,2.362,3.703
		v1.125h-7.6v-1.125c0.922-0.016,1.546-0.283,1.872-0.804c0.327-0.52,0.49-1.486,0.49-2.899V7c0-1.516-0.179-2.504-0.536-2.965
		s-0.967-0.707-1.826-0.738V2.172z"/>
	<path d="M83.883,3.297c-0.933,0.031-1.56,0.301-1.881,0.809S81.521,5.578,81.521,7v20.32c0,2.394,0.787,3.629,2.362,3.703v1.125
		h-7.6v-1.125c0.933-0.016,1.559-0.283,1.88-0.804c0.321-0.52,0.482-1.486,0.482-2.899V7c0-1.516-0.177-2.504-0.528-2.965
		c-0.353-0.461-0.964-0.707-1.834-0.738V2.172h7.6V3.297z"/>
	<path d="M97.901,1h0.73v8.953h-1.135c-0.021-2.344-0.466-4.039-1.337-5.086c-0.87-1.047-2.196-1.57-3.979-1.57h-1.181
		C90.887,5,90.83,6.523,90.83,7.867c0,2.672,0.344,4.641,1.033,5.906c0.688,1.266,1.8,1.898,3.334,1.898h1.522v1.641l-5.719,0.234
		v13.477h1.647c3.481,0,5.476-2.5,5.983-7.5h1.104l-1.274,9.656h-0.777c-0.011-0.688-0.207-1.031-0.591-1.031H85.764v-1.125
		c0.932-0.016,1.559-0.279,1.88-0.792c0.321-0.512,0.482-1.482,0.482-2.911V7.027c0-1.533-0.179-2.53-0.537-2.991
		c-0.357-0.462-0.966-0.708-1.825-0.739V2.172h11.096C97.533,2.172,97.88,1.781,97.901,1z"/>
</g>
<g>
	<path d="M30.581,44.635l1.139-0.205c0.458,1.09,1.452,1.635,2.98,1.635c0.799,0,1.4-0.134,1.805-0.402s0.606-0.629,0.606-1.079
		c0-0.341-0.154-0.615-0.462-0.823c-0.308-0.208-0.664-0.351-1.068-0.43l-2.02-0.395c-0.523-0.105-0.95-0.233-1.283-0.384
		s-0.615-0.383-0.847-0.695c-0.232-0.313-0.348-0.671-0.348-1.074c0-0.669,0.318-1.201,0.954-1.599
		c0.636-0.397,1.452-0.596,2.448-0.596c1.834,0,3.04,0.658,3.616,1.975l-1.146,0.27c-0.133-0.469-0.446-0.823-0.939-1.063
		s-1.018-0.36-1.575-0.36c-0.552,0-1.044,0.116-1.475,0.348c-0.432,0.231-0.647,0.559-0.647,0.982c0,0.593,0.547,0.993,1.64,1.201
		l1.888,0.351c1.726,0.328,2.588,1.064,2.588,2.21c0,0.691-0.324,1.267-0.973,1.726s-1.562,0.688-2.74,0.688
		C32.632,46.914,31.251,46.154,30.581,44.635z"/>
	<path d="M43.057,46.75h-1.265v-7.119h-2.892v-0.879h7.055v0.879h-2.899V46.75z"/>
	<path d="M54.579,38.752L51.2,43.387v3.363h-1.265v-3.363l-3.38-4.635h1.495l2.679,3.675l2.697-3.675H54.579z"/>
	<path d="M61.656,45.871v0.879h-5.96v-7.998h1.294v7.119H61.656z"/>
	<path d="M69.644,45.871v0.879h-6.53v-7.998h6.39v0.879h-5.125v2.543h4.067v0.814h-4.067v2.883H69.644z"/>
</g>
</svg>
