<?xml version="1.0" encoding="utf-8"?>
<!-- Generator: Adobe Illustrator 15.0.0, SVG Export Plug-In . SVG Version: 6.00 Build 0)  -->
<!DOCTYPE svg PUBLIC "-//W3C//DTD SVG 1.1//EN" "http://www.w3.org/Graphics/SVG/1.1/DTD/svg11.dtd">
<svg version="1.1" id="Layer_1" xmlns="http://www.w3.org/2000/svg" xmlns:xlink="http://www.w3.org/1999/xlink" x="0px" y="0px"
	 width="100px" height="50px" viewBox="0 0 100 50" enable-background="new 0 0 100 50" xml:space="preserve">
<g>
	<path stroke="#FFFFFF" stroke-miterlimit="10" d="M10.372,15.078c-2.091-2.12-3.419-3.689-3.95-4.669
		C5.91,9.482,5.65,8.473,5.65,7.408c0-1.082,0.245-1.978,0.729-2.662c0.439-0.621,0.941-0.91,1.582-0.91
		c0.791,0,1.497,0.526,2.098,1.564c0.685,1.183,1.071,2.748,1.148,4.654l0.029,0.72h2.604V2.23l-0.405-0.208
		c-1.638-0.849-2.997-1.279-4.039-1.279c-2.066,0-3.882,0.944-5.398,2.807C2.521,5.367,1.772,7.514,1.772,9.93
		c0,0.93,0.135,1.833,0.401,2.684c0.266,0.853,0.668,1.668,1.222,2.457c0.909,1.102,1.923,2.208,3.011,3.288
		c1.896,1.894,3.116,3.333,3.627,4.277c0.49,0.915,0.738,2.002,0.738,3.232c0,1.405-0.296,2.567-0.88,3.454
		c-0.533,0.809-1.202,1.186-2.106,1.186c-0.963,0-1.839-0.678-2.604-2.015c-0.843-1.471-1.271-3.348-1.271-5.579v-0.75H1.307v9.646
		l0.377,0.216c1.797,1.03,3.461,1.553,4.947,1.553c2.131,0,4.045-1.063,5.687-3.161c1.598-2.042,2.408-4.403,2.408-7.019
		c0-1.623-0.313-3.022-0.935-4.167C13.192,18.162,12.041,16.764,10.372,15.078z"/>
	<path stroke="#FFFFFF" stroke-miterlimit="10" d="M35.664,25.181c1.287-2.844,1.94-6.02,1.94-9.438c0-3.156-0.53-5.911-1.576-8.188
		c-1.053-2.29-2.31-4.008-3.736-5.109c-1.465-1.13-3.172-1.703-5.074-1.703c-3.174,0-6.008,1.832-8.424,5.443
		c-2.353,3.515-3.545,7.716-3.545,12.486c0,4.15,0.963,7.686,2.863,10.508c1.962,2.919,4.41,4.398,7.274,4.398
		c1.982,0,3.895-0.694,5.686-2.064C32.826,30.168,34.372,28.037,35.664,25.181z M33.477,19.867c0,3.029-0.612,5.527-1.818,7.425
		c-1.139,1.792-2.481,2.7-3.991,2.7c-1.968,0-3.846-1.345-5.582-3.996c-1.8-2.753-2.713-6.542-2.713-11.262
		c0-3.171,0.597-5.739,1.774-7.631c1.108-1.779,2.497-2.681,4.127-2.681c1.091,0,2.321,0.589,3.657,1.75
		c1.373,1.195,2.48,3.054,3.293,5.528C33.056,14.229,33.477,16.978,33.477,19.867z"/>
	<path stroke="#FFFFFF" stroke-miterlimit="10" d="M65.818,4.02l0.722,0.026c0.43,0.016,0.997,0.106,1.262,0.448
		c0.089,0.115,0.38,0.636,0.38,2.505v7.289h-7.98V7c0-1.651,0.231-2.266,0.37-2.487c0.223-0.358,0.813-0.451,1.268-0.467
		l0.726-0.023V1.422h-9.102v2.29c-0.111-0.176-0.212-0.36-0.342-0.521c-0.944-1.173-2.406-1.769-4.346-1.769H38.187V4.02
		l0.723,0.026c0.434,0.016,1.005,0.105,1.265,0.443c0.087,0.115,0.374,0.637,0.374,2.51v20.32c0,1.677-0.23,2.293-0.368,2.513
		c-0.218,0.35-0.804,0.433-1.256,0.44l-0.738,0.012v2.613h9.1V30.31l-0.715-0.035c-0.451-0.021-1.647-0.078-1.647-2.954v-8.748
		c0.071,0.03,0.142,0.059,0.211,0.084c0.476,0.181,0.947,0.272,1.401,0.272c1.911,0,3.748-1.256,5.458-3.734
		c1.65-2.388,2.487-4.964,2.487-7.656c0-1.355-0.276-2.529-0.813-3.512l0.515,0.019c0.43,0.016,0.996,0.106,1.262,0.448
		C55.535,4.609,55.825,5.128,55.825,7v20.32c0,1.657-0.235,2.276-0.378,2.502c-0.223,0.358-0.802,0.443-1.246,0.451l-0.738,0.012
		v2.613h9.1v-2.596l-0.722-0.029c-0.448-0.017-1.64-0.062-1.64-2.953V17.242h7.98V27.32c0,1.652-0.238,2.272-0.381,2.496
		c-0.069,0.108-0.28,0.44-1.244,0.457l-0.738,0.012v2.613h9.101v-2.613l-0.736-0.012c-0.424-0.008-0.982-0.089-1.244-0.43
		c-0.09-0.116-0.382-0.643-0.382-2.523V7c0-1.651,0.23-2.266,0.369-2.487c0.223-0.358,0.813-0.451,1.268-0.467l0.726-0.023V1.422
		h-9.101V4.02z M47.733,15.671c-0.373,0-0.8-0.15-1.271-0.448c-0.476-0.299-0.992-0.75-1.538-1.343V5.099
		c0.694-0.698,1.387-1.052,2.063-1.053c0.56,0,1.38,0.17,2.044,1.638c0.58,1.281,0.874,2.902,0.874,4.82
		c0,1.848-0.22,3.229-0.653,4.106C48.889,15.344,48.421,15.671,47.733,15.671z"/>
	<path stroke="#FFFFFF" stroke-miterlimit="10" d="M75.533,4.02l0.723,0.026c0.434,0.016,1.006,0.105,1.265,0.443
		c0.088,0.115,0.374,0.636,0.374,2.51v20.32c0,1.659-0.231,2.281-0.37,2.505c-0.22,0.356-0.803,0.44-1.253,0.448l-0.738,0.012v2.613
		h9.1V30.31l-0.715-0.035c-0.45-0.021-1.646-0.078-1.646-2.954V7c0-1.666,0.229-2.278,0.364-2.493
		c0.223-0.353,0.814-0.445,1.271-0.461l0.726-0.023V1.422h-9.1V4.02z"/>
	<path stroke="#FFFFFF" stroke-miterlimit="10" d="M97.949,22.773l-0.064,0.674c-0.467,4.593-2.18,6.826-5.238,6.826H91.75V18.266
		l5.719-0.234v-3.111h-2.271c-1.267,0-2.117-0.479-2.676-1.507c-0.625-1.147-0.941-3.013-0.941-5.547
		c0-1.134,0.042-2.417,0.124-3.82h0.476c1.542,0,2.687,0.438,3.403,1.3c0.752,0.904,1.143,2.456,1.163,4.612l0.006,0.744h2.629V0.25
		h-2.213L97.15,0.98c-0.011,0.441-0.087,0.441-0.291,0.441H85.014V4.02l0.722,0.026c0.429,0.016,0.996,0.106,1.262,0.45
		c0.089,0.115,0.379,0.636,0.379,2.531V27.32c0,1.676-0.23,2.293-0.369,2.514c-0.217,0.349-0.803,0.432-1.255,0.439l-0.738,0.012
		v2.613H96.91c0.011,0.063,0.021,0.157,0.023,0.293l0.012,0.738h2.172l1.473-11.157H97.949z"/>
	<path stroke="#FFFFFF" stroke-miterlimit="10" d="M65.129,43.738h4.066v-2.314h-4.066v-1.043h5.125v-2.379h-7.891v7.119H57.74
		v-7.119H56.06h-1.114h-1.899l-2.315,3.154l-2.299-3.154h-2.114l-0.612-0.839v0.839H38.15v1.261
		c-0.669-0.771-1.781-1.425-3.665-1.425c-1.133,0-2.09,0.238-2.846,0.71c-0.854,0.534-1.306,1.307-1.306,2.235
		c0,0.565,0.167,1.077,0.496,1.521c0.307,0.413,0.689,0.727,1.14,0.933c0.381,0.172,0.867,0.318,1.448,0.436l2.021,0.396
		c0.302,0.058,0.568,0.164,0.791,0.313c0.132,0.089,0.132,0.144,0.132,0.202c0,0.17-0.045,0.305-0.272,0.454
		c-0.189,0.126-0.583,0.276-1.389,0.276c-1.609,0-2.077-0.671-2.289-1.176l-0.232-0.554l-2.667,0.48l0.383,0.873
		c0.786,1.782,2.455,2.726,4.827,2.728h0c1.331,0,2.398-0.277,3.173-0.825c0.844-0.598,1.29-1.406,1.29-2.339
		c0-0.981-0.469-2.225-2.602-2.81l2.566-0.607l-0.31-0.704h2.202V47.5h2.764v-7.119h2.899v-0.149l2.48,3.4V47.5h2.765v-3.868
		l2.995-4.104V47.5h7.418h0.043h7.988v-2.379h-5.266V43.738z M33.069,40.74c0-0.083,0-0.187,0.252-0.321
		c0.319-0.172,0.696-0.259,1.12-0.259c0.442,0,0.861,0.096,1.247,0.283c0.302,0.147,0.471,0.331,0.546,0.595l0.173,0.608
		c-0.135-0.033-0.275-0.064-0.422-0.092L34.1,41.204C33.254,41.042,33.069,40.814,33.069,40.74z"/>
</g>
</svg>
