<?xml version="1.0" encoding="utf-8"?>
<!-- Generator: Adobe Illustrator 15.0.0, SVG Export Plug-In . SVG Version: 6.00 Build 0)  -->
<!DOCTYPE svg PUBLIC "-//W3C//DTD SVG 1.1//EN" "http://www.w3.org/Graphics/SVG/1.1/DTD/svg11.dtd">
<svg version="1.1" id="Layer_1" xmlns="http://www.w3.org/2000/svg" xmlns:xlink="http://www.w3.org/1999/xlink" x="0px" y="0px"
	 width="100px" height="100px" viewBox="0 0 100 100" enable-background="new 0 0 100 100" xml:space="preserve">
<path fill="#111111" d="M23.503,55.581c-0.708,0-1.349-0.13-1.922-0.392c-0.674-0.297-1.211-0.688-1.615-1.172
	c-0.54-0.521-0.927-1.134-1.164-1.841c-0.202-0.407-0.302-1.133-0.302-2.175c0-1.004,0.101-1.711,0.302-2.122
	c0.27-0.633,0.641-1.228,1.112-1.785c0.539-0.596,1.095-1.024,1.667-1.284c0.572-0.26,1.212-0.391,1.922-0.391h60.332
	c0.707,0,1.348,0.13,1.922,0.391c0.672,0.298,1.212,0.688,1.615,1.172c0.506,0.521,0.893,1.153,1.162,1.897
	c0.203,0.408,0.304,1.116,0.304,2.122c0,1.007-0.101,1.714-0.304,2.122c-0.27,0.633-0.64,1.229-1.111,1.784
	c-0.539,0.597-1.097,1.023-1.668,1.283c-0.571,0.262-1.211,0.392-1.92,0.392H23.503V55.581z M16.685,88.841
	c-0.929,0-1.637-0.13-2.122-0.391c-0.706-0.298-1.301-0.688-1.784-1.173c-0.596-0.596-1.024-1.209-1.285-1.84
	c-0.223-0.408-0.334-1.115-0.334-2.123c0-0.965,0.112-1.654,0.334-2.064c0.261-0.633,0.67-1.229,1.228-1.784
	c0.483-0.483,1.097-0.894,1.841-1.229c0.633-0.26,1.341-0.391,2.122-0.391h66.627c0.781,0,1.488,0.131,2.123,0.391
	c0.742,0.336,1.338,0.727,1.783,1.173c0.521,0.521,0.93,1.135,1.229,1.841c0.261,0.482,0.392,1.172,0.392,2.064
	c0,0.93-0.131,1.638-0.392,2.123c-0.299,0.705-0.688,1.301-1.172,1.783c-0.596,0.598-1.209,1.024-1.84,1.284
	c-0.41,0.224-1.117,0.335-2.123,0.335L16.685,88.841L16.685,88.841z M16.685,22.266c-0.707,0-1.414-0.168-2.122-0.503
	c-0.706-0.298-1.301-0.689-1.784-1.172c-0.559-0.559-0.987-1.136-1.285-1.731c-0.223-0.408-0.334-1.133-0.334-2.175
	c0-1.004,0.112-1.712,0.334-2.122c0.261-0.633,0.67-1.228,1.228-1.784c0.521-0.521,1.135-0.931,1.841-1.229
	c0.483-0.26,1.19-0.391,2.122-0.391h66.627c0.931,0,1.638,0.13,2.123,0.391c0.742,0.298,1.338,0.708,1.783,1.229
	c0.521,0.446,0.93,1.041,1.229,1.784c0.261,0.483,0.392,1.19,0.392,2.122c0,0.966-0.131,1.691-0.392,2.175
	c-0.26,0.633-0.65,1.21-1.172,1.731c-0.668,0.483-1.282,0.874-1.84,1.172c-0.707,0.335-1.414,0.503-2.123,0.503H16.685z"/>
</svg>
